<?xml version="1.0" standalone="no"?>
<!DOCTYPE svg PUBLIC "-//W3C//DTD SVG 1.1//EN" "http://www.w3.org/Graphics/SVG/1.1/DTD/svg11.dtd">
<svg t="1501578339620" class="icon" style="" viewBox="0 0 1024 1024" version="1.1" xmlns="http://www.w3.org/2000/svg" p-id="2497" xmlns:xlink="http://www.w3.org/1999/xlink" width="200" height="200">
  <defs>
    <style type="text/css"></style>
  </defs>
  <path
    d="M931.36 94.816H92.736A60.736 60.736 0 0 0 32 155.456V732.48a60.8 60.8 0 0 0 60.672 60.736h45.632c2.784 8.48 7.84 17.024 15.424 24.96a16.64 16.64 0 0 0 6.848 3.936c76.032 19.68 94.944 44.192 99.392 57.024a29.76 29.76 0 0 1-3.776 26.368 14.592 14.592 0 0 0 22.912 18.016c6.848-8.8 16.48-29.76 8.608-53.248-10.816-32.192-49.696-57.504-115.584-75.2-5.472-6.496-7.168-11.808-7.168-16.256v-0.064c0.032-5.824 3.712-11.744 10.272-16.8a55.904 55.904 0 0 1 6.944-4.32c0.608-0.448 1.12-0.64 1.696-0.928 2.784-1.376 6.016-2.496 9.184-3.616 5.056-1.152 14.144-2.784 28.704-2.784 25.44 0 55.168 5.024 88.224 14.784 5.504 2.432 11.04 4.896 16.672 7.872l5.056 2.816c7.008 3.936 14.016 8.256 21.056 13.12 0.576 0.448 1.152 0.704 1.824 1.088 111.264 78.176 98.816 117.568 98.912 117.568a14.432 14.432 0 0 0 12.832 21.28 14.56 14.56 0 0 0 12.896-7.744c4.576-8.64 19.776-52.128-72.512-128h257.408c-92.32 75.872-77.12 119.36-72.576 128a15.264 15.264 0 0 0 13.376 8.064 14.24 14.24 0 0 0 12.736-20.864c-0.16-0.32-13.184-39.712 98.56-118.304 7.776-5.408 15.552-10.112 23.328-14.56 1.344-0.704 2.784-1.536 4.224-2.272 5.76-3.04 11.488-5.664 17.312-8.256 32.928-9.568 62.56-14.624 87.936-14.624 14.624 0 23.68 1.664 28.704 2.816a77.824 77.824 0 0 1 10.848 4.448c2.304 1.216 4.672 2.656 6.624 4.192 0.128 0 0.192 0.128 0.32 0.128 6.688 4.96 10.304 10.976 10.336 16.896l0.032 0.192c-0.032 4.192-1.824 9.568-7.136 16.128-65.888 17.696-104.8 42.976-115.552 75.168-7.872 23.488 1.76 44.48 8.64 53.248a14.592 14.592 0 0 0 22.752-18.176c-0.064-0.192-8.64-11.456-3.744-25.856 4.32-12.96 23.008-37.568 99.488-57.376a15.808 15.808 0 0 0 6.816-4c7.68-8 12.8-16.512 15.488-25.024A60.608 60.608 0 0 0 992 732.48V155.456a60.48 60.48 0 0 0-60.64-60.64zM312.8 650.208c17.952 46.4 6.88 72.704-0.672 83.968l-0.032-0.128c-1.312-0.416-2.592-0.928-3.904-1.312a225.44 225.44 0 0 0-50.016-12.928c-1.344-0.192-2.688-0.384-4.096-0.512a180.96 180.96 0 0 0-21.664-1.28c-1.568 0-3.072 0-4.64 0.064a183.392 183.392 0 0 0-21.056 1.728c-1.12 0.16-2.144 0.544-3.296 0.576 5.152-24.032 8.544-59.584-7.296-83.424-16.992-25.664-20.96-104.672-0.288-164.352 8.896-25.664-1.888-72.16-9.408-98.688h129.472c5.44 19.232 14.784 68.128-7.104 129.856l-1.6 4.288c-10.528 29.472-23.776 66.208 5.6 142.144z m562.208-13.344c-15.936 23.904-12.448 59.456-7.36 83.488-1.184-0.096-2.176-0.48-3.328-0.576-0.992-0.192-1.952-0.192-3.008-0.384a174.848 174.848 0 0 0-18.944-1.408h-2.56c-24.32-0.192-51.84 4.704-80.864 16.16-7.552-11.136-18.624-37.568-0.672-83.968 29.376-75.936 16.064-112.704 5.44-142.24l-1.44-4.224c-21.952-61.792-12.576-110.624-7.072-129.856h129.504c-7.616 26.528-18.336 73.024-9.504 98.688 20.608 59.744 16.736 138.784-0.192 164.32z m57.728 127.296a52.096 52.096 0 0 0-9.376-16.096c-0.576-0.736-1.344-1.312-1.952-1.92a2.4 2.4 0 0 0-0.736-0.672 60.288 60.288 0 0 0-7.136-6.4c-0.864-0.608-1.696-1.28-2.624-1.888-2.048-1.344-4.32-2.848-6.72-4.128-0.96-0.672-1.792-1.28-2.848-1.824-0.32-0.192-0.736-0.256-0.992-0.448-0.064 0-0.096 0-0.096-0.128-5.6-18.592-13.792-58.784-0.96-77.728 24.064-36.576 25.76-125.216 3.424-189.984-6.016-17.376 3.328-60.224 12.192-89.12h5.824c8 0 14.56-6.528 14.56-14.56a14.592 14.592 0 0 0-14.56-14.528h-188.64a14.56 14.56 0 0 0-14.56 14.528c0 5.632 3.328 10.368 7.968 12.8-6.592 25.952-13.504 77.088 9.216 141.28l1.568 4.416c9.472 26.24 20.192 56.064-5.184 121.856-20.736 53.28-9.888 88.128 1.12 106.752a321.28 321.28 0 0 0-29.376 17.632v0.128H368.256c-0.928-0.704-1.888-1.088-2.848-1.792a317.536 317.536 0 0 0-23.84-14.432l-2.912-1.728c10.976-18.624 21.76-53.312 1.152-106.592-25.504-65.664-14.72-95.424-5.28-121.728l1.632-4.512c22.816-64.128 15.744-115.264 9.184-141.216a14.208 14.208 0 0 0 8-12.8 14.464 14.464 0 0 0-14.496-14.528H150.368a14.496 14.496 0 1 0 0 29.056h5.728c8.864 28.96 18.272 71.776 12.288 89.184-22.016 63.488-20.32 153.984 3.552 189.92 12.576 18.976 4.448 59.104-1.056 77.824-0.32 0.256-0.8 0.384-1.152 0.576-1.152 0.576-2.048 1.312-3.168 1.952a132.48 132.48 0 0 0-6.208 3.744l-2.816 2.176a56 56 0 0 0-6.944 6.048l-0.928 0.896c-0.64 0.608-1.344 1.152-1.92 1.92-1.792 2.016-3.168 4.224-4.576 6.336a50.688 50.688 0 0 0-4.832 9.76H92.736a31.68 31.68 0 0 1-31.648-31.68V155.456a31.68 31.68 0 0 1 31.648-31.616h838.688c17.44 0 31.616 14.176 31.616 31.616V732.48a31.68 31.68 0 0 1-30.304 31.68z"
    p-id="2498"></path>
  <path
    d="M481.28 306.112a14.56 14.56 0 0 0-14.528-14.528c-49.344 0-91.104-30.528-111.232-45.12-4.672-3.392-8.256-6.016-10.752-7.456a14.56 14.56 0 0 0-14.944 24.992c1.984 1.152 4.864 3.264 8.512 6.016 22.624 16.448 69.6 50.752 128.416 50.752a14.656 14.656 0 0 0 14.528-14.656zM689.76 239.008a173.696 173.696 0 0 0-10.752 7.456c-20.064 14.656-62.016 45.088-111.264 45.088a14.592 14.592 0 0 0 0 29.12c58.816 0 105.856-34.24 128.384-50.752 3.616-2.688 6.56-4.832 8.576-5.952a14.56 14.56 0 0 0-14.944-24.96zM615.936 634.272l-97.888-43.968a14.976 14.976 0 0 0-12.608 0.32l-86.592 43.968a14.592 14.592 0 0 0-6.4 19.552 14.592 14.592 0 0 0 19.52 6.368l80.352-40.768 91.552 41.088a14.464 14.464 0 0 0 19.2-7.36 14.336 14.336 0 0 0-7.136-19.2z"
    p-id="2499"></path>
</svg>
