<?xml version="1.0" standalone="no"?>
<!DOCTYPE svg PUBLIC "-//W3C//DTD SVG 1.1//EN" "http://www.w3.org/Graphics/SVG/1.1/DTD/svg11.dtd">
<svg t="1501505985217" style="" viewBox="0 0 1024 1024" version="1.1" xmlns="http://www.w3.org/2000/svg" p-id="4234" xmlns:xlink="http://www.w3.org/1999/xlink" width="200" height="200">
  <defs>
    <style type="text/css"></style>
  </defs>
  <path
    d="M0 511.13984C0 320.18432 104.87808 153.68192 260.1984 65.92512 334.49984 23.9616 420.352 0 511.77472 0 794.4192 0 1023.54944 228.84352 1023.54944 511.11936c0.02048 282.37824-229.10976 511.20128-511.75424 511.20128S0 793.4976 0 511.13984L0 511.13984zM511.77472 63.93856c-247.33696 0-447.81568 200.23296-447.81568 447.22176C64 758.1696 264.43776 958.464 511.77472 958.464c247.27552 0 447.75424-200.25344 447.75424-447.30368C959.54944 264.15104 759.0912 63.93856 511.77472 63.93856L511.77472 63.93856 511.77472 63.93856zM376.09472 375.66464l361.82016-90.35776-90.48064 361.39008-361.84064 90.35776L376.09472 375.66464 376.09472 375.66464 376.09472 375.66464zM664.96512 358.15424l-243.63008 62.64832-62.30016 242.87232 243.2-62.17728L664.96512 358.15424 664.96512 358.15424 664.96512 358.15424zM481.60768 481.05472c16.62976-16.65024 43.68384-16.65024 60.3136 0 16.6912 16.62976 16.6912 43.6224 0 60.23168-16.62976 16.60928-43.68384 16.60928-60.3136 0C464.95744 524.67712 464.95744 497.68448 481.60768 481.05472L481.60768 481.05472 481.60768 481.05472z"
    p-id="4235"
  ></path>
</svg>
