<?xml version="1.0" standalone="no"?>
<!DOCTYPE svg PUBLIC "-//W3C//DTD SVG 1.1//EN" "http://www.w3.org/Graphics/SVG/1.1/DTD/svg11.dtd">
<svg t="1501485124874" class="icon" style="" viewBox="0 0 1024 1024" version="1.1" xmlns="http://www.w3.org/2000/svg" p-id="15206" xmlns:xlink="http://www.w3.org/1999/xlink" width="200" height="200">
  <defs>
    <style type="text/css"></style>
  </defs>
  <path d="M512 1024C230.4 1024 0 793.6 0 512S230.4 0 512 0s512 230.4 512 512-230.4 512-512 512z m0-960C264.533333 64 64 264.533333 64 512S264.533333 960 512 960 960 759.466667 960 512 759.466667 64 512 64z" p-id="15207"></path>
  <path
    d="M601.6 576c59.733333-29.866667 102.4-93.866667 102.4-166.4 0-102.4-85.333333-187.733333-187.733333-187.733333-102.4 0-187.733333 85.333333-187.733334 187.733333 0 72.533333 42.666667 132.266667 98.133334 162.133333-89.6 29.866667-157.866667 106.666667-170.666667 204.8 0 8.533333 4.266667 21.333333 17.066667 21.333334h4.266666c8.533333 0 17.066667-8.533333 17.066667-17.066667 12.8-106.666667 102.4-183.466667 213.333333-183.466667s200.533333 81.066667 213.333334 183.466667c0 8.533333 8.533333 17.066667 17.066666 17.066667h4.266667c8.533333 0 17.066667-8.533333 17.066667-21.333334-8.533333-89.6-72.533333-166.4-157.866667-200.533333zM366.933333 409.6c0-81.066667 68.266667-149.333333 149.333334-149.333333s149.333333 68.266667 149.333333 149.333333-68.266667 149.333333-149.333333 149.333333-149.333333-64-149.333334-149.333333z"
    p-id="15208"></path>
</svg>
