<?xml version="1.0" encoding="utf-8"?>
<!-- Generator: Adobe Illustrator 16.0.0, SVG Export Plug-In . SVG Version: 6.00 Build 0)  -->
<!DOCTYPE svg PUBLIC "-//W3C//DTD SVG 1.1//EN" "http://www.w3.org/Graphics/SVG/1.1/DTD/svg11.dtd">
<svg version="1.1" id="图层_1" xmlns="http://www.w3.org/2000/svg" xmlns:xlink="http://www.w3.org/1999/xlink" x="0px" y="0px"
	 width="262.02px" height="177.833px" viewBox="0 0 262.02 177.833" enable-background="new 0 0 262.02 177.833"
	 xml:space="preserve">
<g>
	<path fill="#FFEB00" d="M35.823,147.958c0,0,16.25,18.25,16.25,20.75c0,0,30.835-28.666,58.334-35c0,0-9.999-13.998-14.667-15.166
		C95.74,118.542,52.573,133.208,35.823,147.958z"/>
	<path fill="#FFF369" d="M35.823,147.958c0,0,6.714,7.756,8.779,10.227c0,0,30.888-25.643,59.61-32.336c0,0-3.974-5.223-8.474-7.307
		C95.74,118.542,52.573,133.208,35.823,147.958z"/>
	<path fill="#FFEB00" d="M227.485,147.958c0,0-16.25,18.25-16.25,20.75c0,0-30.833-28.666-58.333-35c0,0,9.999-13.998,14.666-15.166
		C167.568,118.542,210.735,133.208,227.485,147.958z"/>
	<path fill="#FFF369" d="M227.485,147.958c0,0-6.714,7.756-8.778,10.227c0,0-30.889-25.643-59.611-32.336
		c0,0,3.974-5.223,8.474-7.307C167.568,118.542,210.735,133.208,227.485,147.958z"/>
	<path fill="#F9ED60" d="M211.572,28.639c0,0-20.18-11.055-25.093-14.915c0,0-38.247,44.745-38.47,53.343l11.009,18.25
		C159.019,85.317,207.975,30.569,211.572,28.639z"/>
	<path fill="#F8E502" d="M211.572,28.639c0,0-8.771-4.906-14.511-8.216c0,0-43.937,46.155-44.159,54.753l6.116,10.141
		C159.019,85.317,207.975,30.569,211.572,28.639z"/>
	<path fill="#F9ED60" d="M235.875,65.839c0,0,8.861,17.591,17.605,29.655c0,0-81.127,8.948-94.287,20.354l1.33-22.963
		C160.523,92.885,212.01,69.876,235.875,65.839z"/>
	<path fill="#F8E502" d="M241.889,77.015c0,0,2.848,6.415,11.592,18.479c0,0-81.127,8.948-94.287,20.354l0.801-13.817
		C159.994,102.03,218.024,81.051,241.889,77.015z"/>
	<path fill="#1CDCB1" d="M226.691,33.377c0,0,9.943,19.653,12.05,21.407c0,0-50.067,20.59-73.113,46.325l-0.584-20.354
		C165.043,80.754,198.733,47.063,226.691,33.377z"/>
	<path fill="#19CDA5" d="M230.537,40.804c0,0,6.099,12.226,8.204,13.979c0,0-50.067,20.59-73.113,46.325l-0.584-11.543
		C165.043,89.565,202.578,54.491,230.537,40.804z"/>
	<path fill="#1CDCB1" d="M262.02,110.905c0,0-9.948,27.492-11.756,32.492c0,0-59.311-23.688-94.93-17.195l6.223-22.092
		C161.557,104.11,227.102,97.712,262.02,110.905z"/>
	<path fill="#19CDA5" d="M257.263,124.052c0,0-5.191,14.346-6.999,19.346c0,0-59.311-23.688-94.93-17.195l3.68-13.066
		C159.014,113.136,222.344,110.86,257.263,124.052z"/>
	<path fill="#F9ED60" d="M49.448,27.124c0,0,20.181-11.055,25.093-14.915c0,0,38.247,44.745,38.47,53.343l-11.009,18.25
		C102.002,83.801,53.045,29.053,49.448,27.124z"/>
	<path fill="#F8E502" d="M48.185,28.124c0,0,8.771-4.906,14.51-8.215c0,0,43.938,46.154,44.159,54.752l-6.116,10.141
		C100.737,84.801,51.781,30.053,48.185,28.124z"/>
	<path fill="#F9ED60" d="M26.146,65.324c0,0-8.86,17.591-17.604,29.655c0,0,81.127,8.948,94.287,20.354l-1.33-22.963
		C101.498,92.37,50.011,69.36,26.146,65.324z"/>
	<path fill="#F8E502" d="M20.131,76.5c0,0-2.848,6.415-11.592,18.479c0,0,81.127,8.948,94.287,20.354l-0.801-13.818
		C102.026,101.515,43.996,80.536,20.131,76.5z"/>
	<path fill="#1CDCB1" d="M35.33,32.862c0,0-9.943,19.652-12.05,21.407c0,0,50.067,20.589,73.113,46.326l0.584-20.355
		C96.978,80.239,63.287,46.547,35.33,32.862z"/>
	<path fill="#19CDA5" d="M31.484,40.289c0,0-6.099,12.226-8.204,13.98c0,0,50.067,20.589,73.113,46.326l0.584-11.545
		C96.978,89.049,59.442,53.975,31.484,40.289z"/>
	<path fill="#1CDCB1" d="M0,110.39c0,0,9.947,27.492,11.756,32.492c0,0,59.311-23.688,94.931-17.195l-6.224-22.092
		C100.463,103.595,34.918,97.198,0,110.39z"/>
	<path fill="#19CDA5" d="M4.756,123.536c0,0,5.191,14.346,7,19.346c0,0,59.311-23.688,94.931-17.195l-3.681-13.066
		C103.006,112.62,39.677,110.345,4.756,123.536z"/>
	<path fill="#1CDC72" d="M232.684,55.946c0,0,4.813,2.567,5.455,3.851c0,0,6.216-4.532,7.299-4.452c0,0-1.605-4.813-3.65-6.497
		C241.787,48.847,236.012,51.776,232.684,55.946z"/>
	<path fill="#1CDC72" d="M46.478,19.908c0,0-1.442,4.09-3.851,4.571c0,0,10.709,2.768,11.552,3.369c0,0,3.971-3.489,4.09-4.572
		C58.269,23.276,52.976,20.509,46.478,19.908z"/>
	<path fill="#862EB9" d="M188.406,23.541c0,0,4.171,4.171,5.775,3.529c0,0,3.688-3.931,5.854-3.529c0,0-0.723-5.614-3.129-7.3
		C196.908,16.241,191.455,19.29,188.406,23.541z"/>
	<path fill="#862EB9" d="M227.209,85.063l1.685,6.016c0,0,7.46-2.165,9.265-1.925c0,0-2.646-7.219-3.249-7.219L227.209,85.063z"/>
	<path fill="#862EB9" d="M33.225,92.554c0,0-0.723,6.497-1.444,5.774c0,0,6.616,3.25,6.858,4.453c0,0,2.646-4.211,2.406-5.113
		C41.046,97.668,34.909,92.193,33.225,92.554z"/>
	<path fill="#F05230" d="M234.127,114.181l-1.443,4.33c0,0,7.379,3.049,8.182,4.012l1.604-7.379
		C242.469,115.144,236.213,113.378,234.127,114.181z"/>
	<path fill="#F05230" d="M215.678,24.342c0,0,4.012,2.407,4.012,3.529c0,0,4.813-3.209,6.898-3.529c0,0-0.402-5.455-3.57-6.737
		C223.018,17.605,215.838,21.616,215.678,24.342z"/>
	<path fill="#F05230" d="M10.306,55.161c0,0,0.319,4.813-1.767,6.256c0,0,6.738,1.066,7.701,1.736c0,0,4.01-3.213,4.172-5.121
		C20.412,58.032,15.921,55.161,10.306,55.161z"/>
	<path fill="#FFBA00" d="M35.096,130.542c0,0-4.331,2.887-6.258,2.887c0,0,3.852,4.572,3.129,6.738c0,0,2.769,0.723,4.451-0.963
		C36.418,139.204,36.541,133.671,35.096,130.542z"/>
	<path fill="#1CDCB1" d="M85.355,11c0,0,25.469,26.5,45.234-11c0,0,8.516,34.75,43.266,11.25c0,0-3.667,39.584,32,33.25
		c0,0-23.999,27.334,12.834,44.834c0,0-37.333,12.666-11.5,43.833c0,0-39.834-5.334-33.334,32.5c0,0-29.666-25-44.166,12.166
		c0,0-14.668-35.666-44.334-11.832c0,0,7.666-37.334-33.5-32.5c0,0,27.334-26.168-11.5-45.5c0,0,37.5-11.833,12-43.667
		C52.355,44.334,89.855,53.501,85.355,11z"/>
	<path fill="#1CDC72" d="M191.938,140.079c0,0,4.811-1.283,6.416-2.889c1.604-1.604,7.059,9.947,7.059,9.947l-6.736,4.17
		L191.938,140.079z"/>
	<rect x="93.522" y="92.204" fill="#FFFFFF" width="71.74" height="41"/>
	<rect x="88.272" y="68.704" fill="#FFFFFF" width="82.5" height="20.503"/>
	<circle fill="none" stroke="#FFFFFF" stroke-width="4" stroke-miterlimit="10" cx="117.022" cy="55.204" r="8.75"/>
	<circle fill="none" stroke="#FFFFFF" stroke-width="4" stroke-miterlimit="10" cx="141.705" cy="55.204" r="8.75"/>
</g>
</svg>
